<svg version="1.1" xmlns="http://www.w3.org/2000/svg" xmlns:xlink="http://www.w3.org/1999/xlink" x="0px" y="0px" viewBox="0 0 256 256" enable-background="new 0 0 256 256" xml:space="preserve">

    <metadata>Svg Vector Icons : http://www.onlinewebfonts.com/icon </metadata>

    <g>

        <path fill="#000000" d="M20.3,191.7h77l-7.1,21.2H62.7v10.8h77c-2.2-3.3-4.3-7.1-6.5-10.8h-32l7.1-20.1h19.5c0-2.2-0.5-4.3-0.5-7.1 v-4.9H20.3V28.5h214.8v107.9c4.3,3.3,7.6,7.6,10.8,11.9V28.5c0-6-4.9-10.3-10.3-10.3H20.3c-6,0-10.3,4.9-10.3,10.3v153 C9.5,187.4,14.4,191.7,20.3,191.7L20.3,191.7z"/>

        <path fill="#000000" d="M33.9,40.9V170h95.5c0.5-1.6,1.1-3.8,1.6-5.4H84.4V46.4h131.8V125c1.6,0.5,3.8,1.6,5.4,2.7V40.9H33.9z  M78.9,164.6H38.8V46.4h40.1V164.6z"/>

        <path fill="#000000" d="M155.4,226.5l15.7-9.2c1.6,1.1,3.3,2.2,4.9,2.7v17.9h33.1v-17.9c1.6-1.1,3.3-1.6,4.9-2.7l15.7,9.2 l16.3-28.2l-15.7-9.2v-2.7v-2.7l15.7-9.2l-16.3-28.2l-15.7,9.2c-1.6-1.1-3.3-2.2-4.9-2.7v-17.9H176v17.9c-1.6,1.1-3.3,1.6-4.9,2.7 l-15.7-9.2l-16.3,28.2l15.7,9.2v5.4l-16.3,8.7L155.4,226.5z M166.3,194.4l-0.5-3.8c-0.5-1.6-0.5-3.3-0.5-4.9c0-1.6,0-3.3,0.5-4.9 l0.5-3.8l-12.5-7.6l5.4-9.8l12.5,7.6l2.7-2.7c2.7-2.2,5.4-3.8,8.7-4.9l3.8-1.1V144h11.4v14.6l3.8,1.1c3.3,1.1,6,2.7,8.7,4.9 l2.7,2.7l12.5-7.6l5.4,9.8l-12.5,7.6l0.5,3.8c0.5,1.6,0.5,3.3,0.5,4.9c0,1.6,0,3.3-0.5,4.9l-0.5,3.8l12.5,7.6l-5.4,9.8l-12.5-7.6 l-2.7,2.7c-2.7,2.2-5.4,3.8-8.7,4.9l-3.8,1.1v14.6h-11.4v-14.6l-3.8-1.1c-3.3-1.1-6-2.7-8.7-4.9l-2.7-2.7l-12.5,7.6l-5.4-9.8 L166.3,194.4L166.3,194.4z"/>

        <path fill="#000000" d="M192.3,201.5c8.7,0,15.7-7.1,15.7-15.7c0-8.7-7.1-15.7-15.7-15.7c-8.7,0-15.7,7.1-15.7,15.7 C176.6,194.4,183.6,201.5,192.3,201.5z M182,185.8c0-5.4,4.3-10.3,10.3-10.3c5.4,0,10.3,4.3,10.3,10.3c0,6-4.3,10.3-10.3,10.3 C186.9,196.1,182,191.7,182,185.8z"/>

    </g>

</svg>
